<?xml version="1.0" standalone="no"?>
<!DOCTYPE svg PUBLIC "-//W3C//DTD SVG 20010904//EN"
 "http://www.w3.org/TR/2001/REC-SVG-20010904/DTD/svg10.dtd">
<svg version="1.0" xmlns="http://www.w3.org/2000/svg"
 width="512.000000pt" height="512.000000pt" viewBox="0 0 512.000000 512.000000"
 preserveAspectRatio="xMidYMid meet">

<g transform="translate(0.000000,512.000000) scale(0.100000,-0.100000)"
fill="#000000" stroke="none">
<path d="M2475 5111 c-80 -21 -126 -59 -398 -329 l-277 -277 196 -196 196
-196 51 19 c238 90 517 -46 608 -298 30 -80 30 -225 1 -305 l-20 -56 318 -318
319 -318 53 17 c403 132 764 -279 583 -663 -114 -240 -398 -337 -641 -219
-208 101 -313 348 -243 574 l21 67 -315 315 c-287 287 -317 314 -341 308 l-26
-6 0 -668 0 -667 56 -29 c110 -58 193 -153 235 -272 30 -83 30 -226 0 -308
-62 -173 -208 -294 -386 -319 -221 -32 -442 101 -517 311 -26 70 -34 191 -19
262 31 143 149 288 279 339 l32 13 0 667 0 666 -63 32 c-101 53 -183 144 -229
254 -30 74 -32 237 -4 322 l19 59 -194 194 -194 194 -757 -757 c-856 -857
-813 -807 -813 -958 1 -153 -91 -51 1199 -1343 1295 -1297 1206 -1217 1356
-1217 149 0 42 -96 1333 1194 1298 1296 1218 1207 1218 1354 0 148 92 46
-1205 1345 -954 955 -1170 1167 -1214 1189 -56 28 -160 39 -217 24z"/>
</g>
</svg>
