<?xml version="1.0" standalone="no"?>
<!DOCTYPE svg PUBLIC "-//W3C//DTD SVG 20010904//EN"
 "http://www.w3.org/TR/2001/REC-SVG-20010904/DTD/svg10.dtd">
<svg version="1.0" xmlns="http://www.w3.org/2000/svg"
 width="348.000000pt" height="145.000000pt" viewBox="0 0 348.000000 145.000000"
 preserveAspectRatio="xMidYMid meet">

<g transform="translate(0.000000,145.000000) scale(0.100000,-0.100000)"
fill="#000000" stroke="none">
<path d="M651 1045 c-117 -296 -134 -325 -187 -325 -15 0 -24 -6 -24 -15 0
-12 18 -15 100 -15 82 0 100 3 100 15 0 8 -8 15 -18 15 -23 0 -42 19 -42 42 0
9 9 42 21 73 l20 55 133 0 133 0 28 -75 c14 -41 24 -79 20 -85 -3 -5 -19 -10
-36 -10 -19 0 -29 -5 -29 -15 0 -13 21 -15 125 -15 104 0 125 2 125 15 0 10
-11 15 -35 15 -25 0 -39 6 -49 23 -8 12 -64 149 -126 305 -87 221 -115 282
-129 282 -14 0 -42 -61 -130 -285z m163 27 c31 -79 56 -145 56 -148 0 -2 -52
-4 -115 -4 -63 0 -115 3 -115 7 0 10 113 294 116 290 1 -1 27 -66 58 -145z"/>
<path d="M120 1290 c0 -17 7 -20 53 -20 29 0 58 -5 65 -12 19 -19 17 -761 -2
-777 -8 -6 -37 -14 -65 -18 -33 -4 -51 -10 -51 -19 0 -12 59 -14 335 -14 l335
0 4 22 c3 13 10 77 16 143 6 66 13 130 16 143 3 15 0 22 -11 22 -15 0 -18 -11
-30 -85 -4 -22 -17 -63 -30 -92 -29 -64 -78 -99 -160 -114 -65 -12 -208 -9
-222 4 -4 5 -9 175 -11 379 -3 441 -9 418 98 418 63 0 70 2 70 20 0 19 -7 20
-205 20 -198 0 -205 -1 -205 -20z"/>
<path d="M2470 1290 c0 -17 7 -20 46 -20 25 0 54 -5 65 -10 17 -10 252 -350
265 -385 6 -14 -171 -286 -226 -349 -31 -35 -61 -49 -132 -61 -48 -8 -53 -35
-7 -35 30 0 31 -1 25 -32 -23 -113 -51 -161 -116 -198 -43 -24 -52 -25 -215
-25 l-170 0 -3 198 -2 199 101 -4 c96 -3 102 -4 125 -31 18 -21 24 -40 24 -73
0 -37 3 -44 20 -44 19 0 20 7 20 170 0 163 -1 170 -20 170 -17 0 -20 -7 -20
-44 0 -33 -6 -52 -24 -73 -22 -26 -29 -27 -125 -31 l-101 -4 0 180 0 181 36 7
c60 11 285 -2 324 -18 65 -28 103 -89 116 -186 5 -37 11 -52 22 -52 16 0 16 3
-10 202 l-11 88 -301 2 -301 3 -12 130 c-6 72 -12 136 -12 143 -1 9 -87 12
-395 12 l-394 0 -6 -32 c-3 -18 -8 -84 -12 -147 -6 -95 -5 -113 7 -109 9 3 17
29 22 74 15 138 57 174 204 177 48 1 96 -1 106 -5 16 -7 17 -34 17 -380 0
-205 -4 -379 -9 -387 -10 -15 -76 -30 -138 -31 -31 0 -43 -4 -43 -15 0 -13 34
-15 245 -15 199 0 245 3 245 14 0 9 -22 15 -75 19 -127 11 -115 -31 -115 408
l0 379 28 11 c36 14 177 2 221 -19 43 -20 69 -78 78 -167 l6 -65 -47 0 c-66 0
-63 -25 5 -33 28 -4 57 -12 65 -18 12 -9 14 -78 14 -390 0 -429 6 -399 -84
-399 -39 0 -46 -3 -46 -20 0 -20 7 -20 373 -20 l373 0 24 148 25 147 108 3
c86 2 107 6 107 17 0 8 -15 21 -34 29 -62 26 -58 42 52 208 l101 151 106 -162
c60 -90 104 -168 101 -176 -3 -8 -20 -18 -38 -23 -18 -4 -34 -16 -36 -25 -3
-15 13 -17 172 -17 142 0 176 3 176 14 0 9 -17 16 -49 20 -27 4 -58 14 -70 24
-11 9 -82 112 -159 228 l-139 210 103 151 c112 164 147 193 227 193 30 0 37 4
37 20 0 19 -7 20 -155 20 -148 0 -155 -1 -155 -20 0 -12 7 -20 18 -20 27 0 62
-29 62 -52 0 -19 -147 -248 -159 -248 -3 0 -45 60 -94 133 l-87 132 21 18 c12
9 32 17 45 17 17 0 24 6 24 20 0 19 -7 20 -180 20 -173 0 -180 -1 -180 -20z"/>
</g>
</svg>
