<?xml version="1.0" standalone="no"?>
<!DOCTYPE svg PUBLIC "-//W3C//DTD SVG 20010904//EN"
 "http://www.w3.org/TR/2001/REC-SVG-20010904/DTD/svg10.dtd">
<svg version="1.0" xmlns="http://www.w3.org/2000/svg"
 width="512.000000pt" height="512.000000pt" viewBox="0 0 512.000000 512.000000"
 preserveAspectRatio="xMidYMid meet">

<g transform="translate(0.000000,512.000000) scale(0.100000,-0.100000)"
fill="#000000" stroke="none">
<path d="M2435 5019 c-86 -11 -221 -52 -298 -90 -62 -32 -1314 -787 -1412
-852 -148 -99 -293 -285 -354 -453 -63 -174 -62 -153 -59 -1099 l3 -860 27
-85 c36 -114 70 -189 125 -274 50 -78 172 -205 244 -253 80 -55 1364 -830
1425 -861 155 -78 356 -113 526 -93 114 14 233 48 321 93 57 28 163 92 892
532 596 361 631 386 737 525 65 86 142 244 170 351 l23 85 0 880 0 880 -23 79
c-84 290 -223 461 -522 638 -41 25 -333 201 -648 391 -315 191 -596 359 -625
374 -82 41 -184 73 -287 88 -104 16 -159 17 -265 4z m288 -215 c40 -9 108 -33
152 -54 135 -63 1413 -842 1479 -901 109 -98 190 -230 232 -379 16 -58 18
-119 21 -585 l3 -520 -61 68 c-34 37 -87 87 -118 111 -79 61 -1368 841 -1466
887 -140 66 -227 84 -405 84 -237 -1 -341 -34 -610 -199 -77 -48 -143 -86
-146 -86 -3 0 -4 215 -2 478 5 522 5 528 69 670 93 207 289 368 514 423 90 23
245 24 338 3z m-1083 -461 c-40 -128 -41 -177 -38 -1053 l3 -845 28 -90 c55
-174 149 -329 268 -439 70 -65 122 -101 312 -215 75 -46 137 -87 137 -91 0
-10 -687 -425 -763 -460 -196 -92 -430 -94 -625 -4 -218 100 -366 275 -428
509 -18 66 -19 120 -19 905 0 785 1 839 19 905 40 149 115 276 224 376 35 33
148 109 273 185 118 71 304 184 414 251 110 67 203 122 206 122 4 1 -1 -25
-11 -56z m1119 -1053 c93 -26 134 -47 369 -188 l192 -116 0 -203 c0 -112 -5
-236 -11 -275 -32 -204 -143 -389 -303 -503 -34 -23 -148 -95 -254 -159 l-192
-115 -193 116 c-105 63 -220 135 -253 159 -116 82 -212 208 -261 342 -42 112
-52 200 -53 427 l0 210 203 122 c111 67 220 130 242 141 144 71 349 87 514 42z
m1145 -658 c207 -125 399 -245 427 -267 110 -87 208 -240 250 -391 73 -263
-47 -580 -285 -748 -83 -59 -1322 -809 -1408 -852 -191 -96 -444 -99 -643 -5
-34 15 -242 138 -463 272 l-403 243 88 17 c96 19 176 45 241 78 23 12 203 119
400 238 196 119 454 274 572 346 392 237 461 281 530 344 126 116 223 273 276
449 24 81 27 108 32 297 2 114 6 207 8 207 1 0 172 -102 378 -228z"/>
</g>
</svg>
