<?xml version="1.0" standalone="no"?>
<!DOCTYPE svg PUBLIC "-//W3C//DTD SVG 20010904//EN"
 "http://www.w3.org/TR/2001/REC-SVG-20010904/DTD/svg10.dtd">
<svg version="1.0" xmlns="http://www.w3.org/2000/svg"
 width="512.000000pt" height="512.000000pt" viewBox="0 0 512.000000 512.000000"
 preserveAspectRatio="xMidYMid meet">

<g transform="translate(0.000000,512.000000) scale(0.100000,-0.100000)"
fill="#000000" stroke="none">
<path d="M2509 3900 c-9 -5 -188 -265 -397 -578 l-380 -568 1286 -692 c707
-380 1288 -689 1290 -687 7 7 -1650 2470 -1684 2503 -35 33 -81 42 -115 22z"/>
<path d="M43 3480 c-24 -10 -43 -39 -43 -67 0 -18 786 -2027 815 -2083 18 -35
69 -78 120 -101 38 -18 113 -19 1630 -19 l1590 0 54 31 c29 17 49 34 45 39 -7
7 -3444 1828 -4029 2135 -136 72 -152 77 -182 65z"/>
<path d="M4296 3095 c-401 -212 -731 -387 -733 -389 -4 -4 770 -1191 792
-1214 10 -11 15 -6 28 25 142 355 737 1894 737 1906 0 26 -37 57 -67 57 -17 0
-318 -153 -757 -385z"/>
</g>
</svg>
