<?xml version="1.0" standalone="no"?>
<!DOCTYPE svg PUBLIC "-//W3C//DTD SVG 20010904//EN"
 "http://www.w3.org/TR/2001/REC-SVG-20010904/DTD/svg10.dtd">
<svg version="1.0" xmlns="http://www.w3.org/2000/svg"
 width="768.000000pt" height="768.000000pt" viewBox="0 0 768.000000 768.000000"
 preserveAspectRatio="xMidYMid meet">

<g transform="translate(0.000000,768.000000) scale(0.100000,-0.100000)"
fill="#000000" stroke="none">
<path d="M927 6712 c-10 -10 -17 -30 -17 -43 0 -28 1454 -5922 1470 -5957 14
-31 55 -46 84 -29 26 13 4391 4209 4425 4253 12 15 21 35 21 44 0 48 -14 53
-800 279 -664 191 -3382 974 -4677 1347 -238 68 -445 124 -461 124 -16 0 -36
-8 -45 -18z m823 -338 c300 -86 549 -160 553 -164 5 -4 -200 -209 -455 -454
-383 -370 -464 -444 -470 -429 -7 15 -308 1228 -308 1238 0 2 30 -5 68 -16 37
-10 312 -89 612 -175z m1420 -409 c322 -93 588 -171 593 -175 6 -5 -883 -870
-903 -878 -6 -2 -310 1200 -310 1225 0 7 -64 24 620 -172z m-452 -1091 c-2 -1
-279 77 -616 174 -337 96 -609 179 -605 182 5 4 213 204 463 445 l455 439 153
-619 c84 -340 151 -619 150 -621z m1903 673 c327 -95 597 -175 600 -178 5 -6
-897 -879 -909 -879 -4 0 -65 235 -136 523 -179 723 -175 707 -162 707 6 -1
279 -78 607 -173z m-596 -486 c80 -326 144 -596 141 -598 -2 -3 -277 74 -611
169 l-606 174 458 441 c359 346 460 438 465 425 4 -10 73 -284 153 -611z
m2060 64 c335 -97 611 -178 614 -181 6 -6 19 8 -508 -499 -355 -341 -416 -396
-423 -379 -4 10 -73 285 -153 609 -80 325 -148 598 -151 608 -3 9 -1 17 4 17
5 0 282 -79 617 -175z m-600 -484 c80 -327 144 -597 143 -601 -3 -6 -1205 334
-1215 344 -2 2 202 203 454 445 373 360 459 439 465 424 4 -10 73 -285 153
-612z m-3428 278 c329 -94 604 -174 610 -178 8 -4 -155 -168 -453 -455 -256
-246 -467 -446 -469 -444 -2 2 -72 278 -155 613 -83 336 -153 619 -156 629 -5
14 -3 18 10 13 8 -3 285 -83 613 -178z m1486 -424 c323 -93 587 -172 587 -176
0 -8 -895 -872 -908 -877 -6 -2 -206 789 -298 1177 -12 52 -12 53 9 49 12 -3
286 -80 610 -173z m-608 -486 c84 -343 152 -625 150 -627 -2 -2 -273 74 -602
168 -329 95 -609 176 -622 179 -21 6 24 53 445 458 258 248 470 450 472 448 2
-1 72 -283 157 -626z m2073 61 c331 -96 601 -177 600 -181 -6 -15 -933 -900
-935 -892 -13 46 -303 1234 -303 1243 0 7 8 10 18 8 9 -3 288 -83 620 -178z
m-619 -484 c84 -340 150 -620 148 -622 -6 -7 -1237 350 -1235 358 6 16 924
895 929 889 3 -3 74 -284 158 -625z m-1972 -158 c332 -95 603 -176 603 -180 0
-8 -901 -878 -909 -878 -3 0 -60 217 -125 483 -168 678 -184 747 -177 747 3 1
277 -77 608 -172z m1492 -429 c321 -93 586 -171 588 -173 4 -4 -121 -127 -577
-565 l-335 -322 -147 593 c-179 724 -163 651 -135 642 12 -4 285 -83 606 -175z
m-613 -452 c83 -336 148 -613 145 -614 -10 -5 -1212 343 -1212 350 1 10 900
877 909 877 4 0 75 -276 158 -613z m-505 -573 c338 -97 618 -179 622 -183 4
-5 -169 -178 -385 -386 -216 -208 -428 -412 -470 -454 -43 -41 -79 -73 -82
-70 -2 2 -72 281 -155 619 -84 338 -154 623 -157 633 -3 9 -1 17 4 17 5 0 286
-79 623 -176z"/>
</g>
</svg>
